<svg width="40" height="40" viewBox="0 0 40 40" fill="none" xmlns="http://www.w3.org/2000/svg">
<rect width="40" height="40" rx="20" fill="white"/>
<path d="M13.168 21.918H8.82031V19.1758H13.168C13.8398 19.1758 14.3867 19.0664 14.8086 18.8477C15.2305 18.6211 15.5391 18.3086 15.7344 17.9102C15.9297 17.5117 16.0273 17.0625 16.0273 16.5625C16.0273 16.0547 15.9297 15.582 15.7344 15.1445C15.5391 14.707 15.2305 14.3555 14.8086 14.0898C14.3867 13.8242 13.8398 13.6914 13.168 13.6914H10.0391V28H6.52344V10.9375H13.168C14.5039 10.9375 15.6484 11.1797 16.6016 11.6641C17.5625 12.1406 18.2969 12.8008 18.8047 13.6445C19.3125 14.4883 19.5664 15.4531 19.5664 16.5391C19.5664 17.6406 19.3125 18.5938 18.8047 19.3984C18.2969 20.2031 17.5625 20.8242 16.6016 21.2617C15.6484 21.6992 14.5039 21.918 13.168 21.918ZM30.875 23.5352C30.875 23.2305 30.8281 22.957 30.7344 22.7148C30.6484 22.4648 30.4844 22.2383 30.2422 22.0352C30 21.8242 29.6602 21.6172 29.2227 21.4141C28.7852 21.2109 28.2188 21 27.5234 20.7812C26.75 20.5312 26.0156 20.25 25.3203 19.9375C24.6328 19.625 24.0234 19.2617 23.4922 18.8477C22.9688 18.4258 22.5547 17.9375 22.25 17.3828C21.9531 16.8281 21.8047 16.1836 21.8047 15.4492C21.8047 14.7383 21.9609 14.0938 22.2734 13.5156C22.5859 12.9297 23.0234 12.4297 23.5859 12.0156C24.1484 11.5938 24.8125 11.2695 25.5781 11.043C26.3516 10.8164 27.1992 10.7031 28.1211 10.7031C29.3789 10.7031 30.4766 10.9297 31.4141 11.3828C32.3516 11.8359 33.0781 12.457 33.5938 13.2461C34.1172 14.0352 34.3789 14.9375 34.3789 15.9531H30.8867C30.8867 15.4531 30.7812 15.0156 30.5703 14.6406C30.3672 14.2578 30.0547 13.957 29.6328 13.7383C29.2188 13.5195 28.6953 13.4102 28.0625 13.4102C27.4531 13.4102 26.9453 13.5039 26.5391 13.6914C26.1328 13.8711 25.8281 14.1172 25.625 14.4297C25.4219 14.7344 25.3203 15.0781 25.3203 15.4609C25.3203 15.75 25.3906 16.0117 25.5312 16.2461C25.6797 16.4805 25.8984 16.6992 26.1875 16.9023C26.4766 17.1055 26.832 17.2969 27.2539 17.4766C27.6758 17.6562 28.1641 17.832 28.7188 18.0039C29.6484 18.2852 30.4648 18.6016 31.168 18.9531C31.8789 19.3047 32.4727 19.6992 32.9492 20.1367C33.4258 20.5742 33.7852 21.0703 34.0273 21.625C34.2695 22.1797 34.3906 22.8086 34.3906 23.5117C34.3906 24.2539 34.2461 24.918 33.957 25.5039C33.668 26.0898 33.25 26.5859 32.7031 26.9922C32.1562 27.3984 31.5039 27.707 30.7461 27.918C29.9883 28.1289 29.1406 28.2344 28.2031 28.2344C27.3594 28.2344 26.5273 28.125 25.707 27.9062C24.8867 27.6797 24.1406 27.3398 23.4688 26.8867C22.8047 26.4336 22.2734 25.8555 21.875 25.1523C21.4766 24.4492 21.2773 23.6172 21.2773 22.6562H24.8047C24.8047 23.1875 24.8867 23.6367 25.0508 24.0039C25.2148 24.3711 25.4453 24.668 25.7422 24.8945C26.0469 25.1211 26.4062 25.2852 26.8203 25.3867C27.2422 25.4883 27.7031 25.5391 28.2031 25.5391C28.8125 25.5391 29.3125 25.4531 29.7031 25.2812C30.1016 25.1094 30.3945 24.8711 30.582 24.5664C30.7773 24.2617 30.875 23.918 30.875 23.5352Z" fill="black"/>
</svg>
